<mxfile host="app.diagrams.net" modified="2023-10-12T19:38:30.555Z" agent="Mozilla/5.0 (Windows NT 10.0; Win64; x64) AppleWebKit/537.36 (KHTML, like Gecko) Chrome/117.0.0.0 Safari/537.36" etag="czI7C2OVOv2Y7zlHvzF_" version="22.0.4" type="github">
  <diagram name="Page-1" id="ptBrJCZNpnKrMrh5eRFJ">
    <mxGraphModel dx="1434" dy="790" grid="1" gridSize="10" guides="1" tooltips="1" connect="1" arrows="1" fold="1" page="1" pageScale="1" pageWidth="850" pageHeight="1100" math="0" shadow="0">
      <root>
        <mxCell id="0" />
        <mxCell id="1" parent="0" />
        <mxCell id="P4rtW_fDKfjn2RvKO4Z2-17" style="edgeStyle=orthogonalEdgeStyle;rounded=0;orthogonalLoop=1;jettySize=auto;html=1;exitX=0.5;exitY=1;exitDx=0;exitDy=0;entryX=0.5;entryY=0;entryDx=0;entryDy=0;" edge="1" parent="1" source="P4rtW_fDKfjn2RvKO4Z2-1" target="P4rtW_fDKfjn2RvKO4Z2-9">
          <mxGeometry relative="1" as="geometry" />
        </mxCell>
        <mxCell id="P4rtW_fDKfjn2RvKO4Z2-21" style="edgeStyle=orthogonalEdgeStyle;rounded=0;orthogonalLoop=1;jettySize=auto;html=1;exitX=1;exitY=0.5;exitDx=0;exitDy=0;entryX=0;entryY=0.5;entryDx=0;entryDy=0;" edge="1" parent="1" source="P4rtW_fDKfjn2RvKO4Z2-1" target="P4rtW_fDKfjn2RvKO4Z2-19">
          <mxGeometry relative="1" as="geometry" />
        </mxCell>
        <mxCell id="P4rtW_fDKfjn2RvKO4Z2-37" style="edgeStyle=orthogonalEdgeStyle;rounded=0;orthogonalLoop=1;jettySize=auto;html=1;exitX=0.5;exitY=0;exitDx=0;exitDy=0;entryX=0.5;entryY=1;entryDx=0;entryDy=0;" edge="1" parent="1" source="P4rtW_fDKfjn2RvKO4Z2-1" target="P4rtW_fDKfjn2RvKO4Z2-8">
          <mxGeometry relative="1" as="geometry" />
        </mxCell>
        <mxCell id="P4rtW_fDKfjn2RvKO4Z2-1" value="Users" style="rounded=1;whiteSpace=wrap;html=1;" vertex="1" parent="1">
          <mxGeometry x="180" y="310" width="120" height="60" as="geometry" />
        </mxCell>
        <mxCell id="P4rtW_fDKfjn2RvKO4Z2-2" value="InflationData" style="rounded=1;whiteSpace=wrap;html=1;" vertex="1" parent="1">
          <mxGeometry x="615" y="440" width="120" height="60" as="geometry" />
        </mxCell>
        <mxCell id="P4rtW_fDKfjn2RvKO4Z2-3" value="InterestData" style="rounded=1;whiteSpace=wrap;html=1;" vertex="1" parent="1">
          <mxGeometry x="615" y="170" width="120" height="60" as="geometry" />
        </mxCell>
        <mxCell id="P4rtW_fDKfjn2RvKO4Z2-4" value="IncomeData" style="rounded=1;whiteSpace=wrap;html=1;" vertex="1" parent="1">
          <mxGeometry x="285" y="130" width="120" height="60" as="geometry" />
        </mxCell>
        <mxCell id="P4rtW_fDKfjn2RvKO4Z2-5" value="UserIncome" style="rounded=1;whiteSpace=wrap;html=1;" vertex="1" parent="1">
          <mxGeometry x="315" y="530" width="120" height="60" as="geometry" />
        </mxCell>
        <mxCell id="P4rtW_fDKfjn2RvKO4Z2-28" style="edgeStyle=orthogonalEdgeStyle;rounded=0;orthogonalLoop=1;jettySize=auto;html=1;exitX=0.5;exitY=1;exitDx=0;exitDy=0;entryX=1;entryY=0.5;entryDx=0;entryDy=0;" edge="1" parent="1" source="P4rtW_fDKfjn2RvKO4Z2-69" target="P4rtW_fDKfjn2RvKO4Z2-5">
          <mxGeometry relative="1" as="geometry" />
        </mxCell>
        <mxCell id="P4rtW_fDKfjn2RvKO4Z2-30" style="edgeStyle=orthogonalEdgeStyle;rounded=0;orthogonalLoop=1;jettySize=auto;html=1;exitX=1;exitY=0.5;exitDx=0;exitDy=0;entryX=0;entryY=0.5;entryDx=0;entryDy=0;" edge="1" parent="1" source="P4rtW_fDKfjn2RvKO4Z2-6" target="P4rtW_fDKfjn2RvKO4Z2-24">
          <mxGeometry relative="1" as="geometry" />
        </mxCell>
        <mxCell id="P4rtW_fDKfjn2RvKO4Z2-41" style="edgeStyle=orthogonalEdgeStyle;rounded=0;orthogonalLoop=1;jettySize=auto;html=1;exitX=0.5;exitY=0;exitDx=0;exitDy=0;entryX=0.5;entryY=1;entryDx=0;entryDy=0;" edge="1" parent="1" source="P4rtW_fDKfjn2RvKO4Z2-6" target="P4rtW_fDKfjn2RvKO4Z2-23">
          <mxGeometry relative="1" as="geometry" />
        </mxCell>
        <mxCell id="P4rtW_fDKfjn2RvKO4Z2-6" value="Charts" style="rounded=1;whiteSpace=wrap;html=1;" vertex="1" parent="1">
          <mxGeometry x="455" y="310" width="120" height="60" as="geometry" />
        </mxCell>
        <mxCell id="P4rtW_fDKfjn2RvKO4Z2-15" style="edgeStyle=orthogonalEdgeStyle;rounded=0;orthogonalLoop=1;jettySize=auto;html=1;exitX=0.5;exitY=0;exitDx=0;exitDy=0;entryX=0;entryY=1;entryDx=0;entryDy=0;" edge="1" parent="1" source="P4rtW_fDKfjn2RvKO4Z2-8" target="P4rtW_fDKfjn2RvKO4Z2-4">
          <mxGeometry relative="1" as="geometry" />
        </mxCell>
        <mxCell id="P4rtW_fDKfjn2RvKO4Z2-8" value="have" style="rhombus;whiteSpace=wrap;html=1;" vertex="1" parent="1">
          <mxGeometry x="215" y="230" width="50" height="40" as="geometry" />
        </mxCell>
        <mxCell id="P4rtW_fDKfjn2RvKO4Z2-18" style="edgeStyle=orthogonalEdgeStyle;rounded=0;orthogonalLoop=1;jettySize=auto;html=1;exitX=0.5;exitY=1;exitDx=0;exitDy=0;entryX=0;entryY=0.5;entryDx=0;entryDy=0;" edge="1" parent="1" source="P4rtW_fDKfjn2RvKO4Z2-9" target="P4rtW_fDKfjn2RvKO4Z2-5">
          <mxGeometry relative="1" as="geometry" />
        </mxCell>
        <mxCell id="P4rtW_fDKfjn2RvKO4Z2-9" value="have" style="rhombus;whiteSpace=wrap;html=1;" vertex="1" parent="1">
          <mxGeometry x="235" y="440" width="50" height="40" as="geometry" />
        </mxCell>
        <mxCell id="P4rtW_fDKfjn2RvKO4Z2-22" style="edgeStyle=orthogonalEdgeStyle;rounded=0;orthogonalLoop=1;jettySize=auto;html=1;exitX=1;exitY=0.5;exitDx=0;exitDy=0;entryX=0;entryY=0.5;entryDx=0;entryDy=0;" edge="1" parent="1" source="P4rtW_fDKfjn2RvKO4Z2-19" target="P4rtW_fDKfjn2RvKO4Z2-6">
          <mxGeometry relative="1" as="geometry" />
        </mxCell>
        <mxCell id="P4rtW_fDKfjn2RvKO4Z2-19" value="access" style="rhombus;whiteSpace=wrap;html=1;" vertex="1" parent="1">
          <mxGeometry x="355" y="320" width="50" height="40" as="geometry" />
        </mxCell>
        <mxCell id="P4rtW_fDKfjn2RvKO4Z2-27" style="edgeStyle=orthogonalEdgeStyle;rounded=0;orthogonalLoop=1;jettySize=auto;html=1;exitX=0.5;exitY=0;exitDx=0;exitDy=0;entryX=1;entryY=0.5;entryDx=0;entryDy=0;" edge="1" parent="1" source="P4rtW_fDKfjn2RvKO4Z2-23" target="P4rtW_fDKfjn2RvKO4Z2-4">
          <mxGeometry relative="1" as="geometry" />
        </mxCell>
        <mxCell id="P4rtW_fDKfjn2RvKO4Z2-23" value="have" style="rhombus;whiteSpace=wrap;html=1;" vertex="1" parent="1">
          <mxGeometry x="490" y="210" width="50" height="40" as="geometry" />
        </mxCell>
        <mxCell id="P4rtW_fDKfjn2RvKO4Z2-32" style="edgeStyle=orthogonalEdgeStyle;rounded=0;orthogonalLoop=1;jettySize=auto;html=1;exitX=0.5;exitY=1;exitDx=0;exitDy=0;" edge="1" parent="1" source="P4rtW_fDKfjn2RvKO4Z2-24" target="P4rtW_fDKfjn2RvKO4Z2-2">
          <mxGeometry relative="1" as="geometry" />
        </mxCell>
        <mxCell id="P4rtW_fDKfjn2RvKO4Z2-24" value="have" style="rhombus;whiteSpace=wrap;html=1;" vertex="1" parent="1">
          <mxGeometry x="650" y="320" width="50" height="40" as="geometry" />
        </mxCell>
        <mxCell id="P4rtW_fDKfjn2RvKO4Z2-31" style="edgeStyle=orthogonalEdgeStyle;rounded=0;orthogonalLoop=1;jettySize=auto;html=1;exitX=0.5;exitY=0;exitDx=0;exitDy=0;entryX=0.5;entryY=1;entryDx=0;entryDy=0;" edge="1" parent="1" source="P4rtW_fDKfjn2RvKO4Z2-24" target="P4rtW_fDKfjn2RvKO4Z2-3">
          <mxGeometry relative="1" as="geometry" />
        </mxCell>
        <mxCell id="P4rtW_fDKfjn2RvKO4Z2-33" value="u_users_id" style="ellipse;whiteSpace=wrap;html=1;" vertex="1" parent="1">
          <mxGeometry x="50" y="260" width="70" height="40" as="geometry" />
        </mxCell>
        <mxCell id="P4rtW_fDKfjn2RvKO4Z2-34" value="u_email" style="ellipse;whiteSpace=wrap;html=1;" vertex="1" parent="1">
          <mxGeometry x="50" y="320" width="70" height="40" as="geometry" />
        </mxCell>
        <mxCell id="P4rtW_fDKfjn2RvKO4Z2-35" value="u_password" style="ellipse;whiteSpace=wrap;html=1;" vertex="1" parent="1">
          <mxGeometry x="50" y="390" width="70" height="40" as="geometry" />
        </mxCell>
        <mxCell id="P4rtW_fDKfjn2RvKO4Z2-38" value="" style="endArrow=none;html=1;rounded=0;exitX=1;exitY=0.5;exitDx=0;exitDy=0;" edge="1" parent="1" source="P4rtW_fDKfjn2RvKO4Z2-34">
          <mxGeometry width="50" height="50" relative="1" as="geometry">
            <mxPoint x="130" y="390" as="sourcePoint" />
            <mxPoint x="180" y="340" as="targetPoint" />
          </mxGeometry>
        </mxCell>
        <mxCell id="P4rtW_fDKfjn2RvKO4Z2-39" value="" style="endArrow=none;html=1;rounded=0;exitX=1;exitY=0.5;exitDx=0;exitDy=0;" edge="1" parent="1" source="P4rtW_fDKfjn2RvKO4Z2-35">
          <mxGeometry width="50" height="50" relative="1" as="geometry">
            <mxPoint x="120" y="369" as="sourcePoint" />
            <mxPoint x="180" y="369" as="targetPoint" />
          </mxGeometry>
        </mxCell>
        <mxCell id="P4rtW_fDKfjn2RvKO4Z2-40" value="" style="endArrow=none;html=1;rounded=0;exitX=1;exitY=0.5;exitDx=0;exitDy=0;entryX=0;entryY=0;entryDx=0;entryDy=0;" edge="1" parent="1" source="P4rtW_fDKfjn2RvKO4Z2-33" target="P4rtW_fDKfjn2RvKO4Z2-1">
          <mxGeometry width="50" height="50" relative="1" as="geometry">
            <mxPoint x="120" y="309" as="sourcePoint" />
            <mxPoint x="180" y="309" as="targetPoint" />
          </mxGeometry>
        </mxCell>
        <mxCell id="P4rtW_fDKfjn2RvKO4Z2-42" value="c_type" style="ellipse;whiteSpace=wrap;html=1;" vertex="1" parent="1">
          <mxGeometry x="340" y="260" width="70" height="40" as="geometry" />
        </mxCell>
        <mxCell id="P4rtW_fDKfjn2RvKO4Z2-43" value="c_id" style="ellipse;whiteSpace=wrap;html=1;" vertex="1" parent="1">
          <mxGeometry x="545" y="240" width="70" height="40" as="geometry" />
        </mxCell>
        <mxCell id="P4rtW_fDKfjn2RvKO4Z2-44" value="c_name" style="ellipse;whiteSpace=wrap;html=1;" vertex="1" parent="1">
          <mxGeometry x="530" y="400" width="70" height="40" as="geometry" />
        </mxCell>
        <mxCell id="P4rtW_fDKfjn2RvKO4Z2-46" value="" style="endArrow=none;html=1;rounded=0;exitX=0;exitY=0;exitDx=0;exitDy=0;entryX=1;entryY=0.5;entryDx=0;entryDy=0;" edge="1" parent="1" source="P4rtW_fDKfjn2RvKO4Z2-6" target="P4rtW_fDKfjn2RvKO4Z2-42">
          <mxGeometry width="50" height="50" relative="1" as="geometry">
            <mxPoint x="400" y="310" as="sourcePoint" />
            <mxPoint x="450" y="260" as="targetPoint" />
          </mxGeometry>
        </mxCell>
        <mxCell id="P4rtW_fDKfjn2RvKO4Z2-47" value="" style="endArrow=none;html=1;rounded=0;exitX=0.75;exitY=0;exitDx=0;exitDy=0;entryX=0.5;entryY=1;entryDx=0;entryDy=0;" edge="1" parent="1" source="P4rtW_fDKfjn2RvKO4Z2-6" target="P4rtW_fDKfjn2RvKO4Z2-43">
          <mxGeometry width="50" height="50" relative="1" as="geometry">
            <mxPoint x="560" y="350" as="sourcePoint" />
            <mxPoint x="545" y="280" as="targetPoint" />
            <Array as="points" />
          </mxGeometry>
        </mxCell>
        <mxCell id="P4rtW_fDKfjn2RvKO4Z2-48" value="" style="endArrow=none;html=1;rounded=0;" edge="1" parent="1" source="P4rtW_fDKfjn2RvKO4Z2-44">
          <mxGeometry width="50" height="50" relative="1" as="geometry">
            <mxPoint x="510" y="420" as="sourcePoint" />
            <mxPoint x="560" y="370" as="targetPoint" />
          </mxGeometry>
        </mxCell>
        <mxCell id="P4rtW_fDKfjn2RvKO4Z2-49" value="If_rate" style="ellipse;whiteSpace=wrap;html=1;" vertex="1" parent="1">
          <mxGeometry x="640" y="520" width="70" height="40" as="geometry" />
        </mxCell>
        <mxCell id="P4rtW_fDKfjn2RvKO4Z2-50" value="it_id" style="ellipse;whiteSpace=wrap;html=1;" vertex="1" parent="1">
          <mxGeometry x="760" y="170" width="70" height="40" as="geometry" />
        </mxCell>
        <mxCell id="P4rtW_fDKfjn2RvKO4Z2-51" value="it_rate" style="ellipse;whiteSpace=wrap;html=1;" vertex="1" parent="1">
          <mxGeometry x="640" y="90" width="70" height="40" as="geometry" />
        </mxCell>
        <mxCell id="P4rtW_fDKfjn2RvKO4Z2-52" value="i_id" style="ellipse;whiteSpace=wrap;html=1;" vertex="1" parent="1">
          <mxGeometry x="220" y="60" width="70" height="40" as="geometry" />
        </mxCell>
        <mxCell id="P4rtW_fDKfjn2RvKO4Z2-53" value="if_id" style="ellipse;whiteSpace=wrap;html=1;" vertex="1" parent="1">
          <mxGeometry x="750" y="450" width="70" height="40" as="geometry" />
        </mxCell>
        <mxCell id="P4rtW_fDKfjn2RvKO4Z2-54" value="i_user_id" style="ellipse;whiteSpace=wrap;html=1;" vertex="1" parent="1">
          <mxGeometry x="400" y="60" width="70" height="40" as="geometry" />
        </mxCell>
        <mxCell id="P4rtW_fDKfjn2RvKO4Z2-56" value="" style="endArrow=none;html=1;rounded=0;entryX=0.5;entryY=1;entryDx=0;entryDy=0;exitX=1;exitY=0;exitDx=0;exitDy=0;" edge="1" parent="1" source="P4rtW_fDKfjn2RvKO4Z2-4" target="P4rtW_fDKfjn2RvKO4Z2-54">
          <mxGeometry width="50" height="50" relative="1" as="geometry">
            <mxPoint x="430" y="150" as="sourcePoint" />
            <mxPoint x="480" y="100" as="targetPoint" />
          </mxGeometry>
        </mxCell>
        <mxCell id="P4rtW_fDKfjn2RvKO4Z2-57" value="" style="endArrow=none;html=1;rounded=0;entryX=0.5;entryY=1;entryDx=0;entryDy=0;exitX=0;exitY=0;exitDx=0;exitDy=0;" edge="1" parent="1" source="P4rtW_fDKfjn2RvKO4Z2-4">
          <mxGeometry width="50" height="50" relative="1" as="geometry">
            <mxPoint x="225" y="130" as="sourcePoint" />
            <mxPoint x="255" y="100" as="targetPoint" />
          </mxGeometry>
        </mxCell>
        <mxCell id="P4rtW_fDKfjn2RvKO4Z2-59" value="ui_amount" style="ellipse;whiteSpace=wrap;html=1;" vertex="1" parent="1">
          <mxGeometry x="440" y="610" width="70" height="40" as="geometry" />
        </mxCell>
        <mxCell id="P4rtW_fDKfjn2RvKO4Z2-60" value="u_user_id" style="ellipse;whiteSpace=wrap;html=1;" vertex="1" parent="1">
          <mxGeometry x="345" y="610" width="70" height="40" as="geometry" />
        </mxCell>
        <mxCell id="P4rtW_fDKfjn2RvKO4Z2-61" value="ui_data_id" style="ellipse;whiteSpace=wrap;html=1;" vertex="1" parent="1">
          <mxGeometry x="250" y="610" width="70" height="40" as="geometry" />
        </mxCell>
        <mxCell id="P4rtW_fDKfjn2RvKO4Z2-62" value="" style="endArrow=none;html=1;rounded=0;" edge="1" parent="1" source="P4rtW_fDKfjn2RvKO4Z2-49">
          <mxGeometry width="50" height="50" relative="1" as="geometry">
            <mxPoint x="630" y="550" as="sourcePoint" />
            <mxPoint x="680" y="500" as="targetPoint" />
          </mxGeometry>
        </mxCell>
        <mxCell id="P4rtW_fDKfjn2RvKO4Z2-63" value="" style="endArrow=none;html=1;rounded=0;exitX=1;exitY=0.5;exitDx=0;exitDy=0;" edge="1" parent="1" source="P4rtW_fDKfjn2RvKO4Z2-2">
          <mxGeometry width="50" height="50" relative="1" as="geometry">
            <mxPoint x="700" y="520" as="sourcePoint" />
            <mxPoint x="750" y="470" as="targetPoint" />
          </mxGeometry>
        </mxCell>
        <mxCell id="P4rtW_fDKfjn2RvKO4Z2-64" value="" style="endArrow=none;html=1;rounded=0;exitX=1;exitY=0.5;exitDx=0;exitDy=0;" edge="1" parent="1" source="P4rtW_fDKfjn2RvKO4Z2-3">
          <mxGeometry width="50" height="50" relative="1" as="geometry">
            <mxPoint x="710" y="240" as="sourcePoint" />
            <mxPoint x="760" y="190" as="targetPoint" />
          </mxGeometry>
        </mxCell>
        <mxCell id="P4rtW_fDKfjn2RvKO4Z2-65" value="" style="endArrow=none;html=1;rounded=0;exitX=0.5;exitY=0;exitDx=0;exitDy=0;" edge="1" parent="1" source="P4rtW_fDKfjn2RvKO4Z2-3">
          <mxGeometry width="50" height="50" relative="1" as="geometry">
            <mxPoint x="630" y="180" as="sourcePoint" />
            <mxPoint x="680" y="130" as="targetPoint" />
          </mxGeometry>
        </mxCell>
        <mxCell id="P4rtW_fDKfjn2RvKO4Z2-66" value="" style="endArrow=none;html=1;rounded=0;exitX=0.5;exitY=0;exitDx=0;exitDy=0;" edge="1" parent="1" source="P4rtW_fDKfjn2RvKO4Z2-59">
          <mxGeometry width="50" height="50" relative="1" as="geometry">
            <mxPoint x="380" y="640" as="sourcePoint" />
            <mxPoint x="430" y="590" as="targetPoint" />
          </mxGeometry>
        </mxCell>
        <mxCell id="P4rtW_fDKfjn2RvKO4Z2-67" value="" style="endArrow=none;html=1;rounded=0;exitX=0.5;exitY=0;exitDx=0;exitDy=0;" edge="1" parent="1" source="P4rtW_fDKfjn2RvKO4Z2-60">
          <mxGeometry width="50" height="50" relative="1" as="geometry">
            <mxPoint x="330" y="640" as="sourcePoint" />
            <mxPoint x="380" y="590" as="targetPoint" />
          </mxGeometry>
        </mxCell>
        <mxCell id="P4rtW_fDKfjn2RvKO4Z2-68" value="" style="endArrow=none;html=1;rounded=0;exitX=0.5;exitY=0;exitDx=0;exitDy=0;" edge="1" parent="1" source="P4rtW_fDKfjn2RvKO4Z2-61">
          <mxGeometry width="50" height="50" relative="1" as="geometry">
            <mxPoint x="265" y="640" as="sourcePoint" />
            <mxPoint x="315" y="590" as="targetPoint" />
          </mxGeometry>
        </mxCell>
        <mxCell id="P4rtW_fDKfjn2RvKO4Z2-70" value="" style="edgeStyle=orthogonalEdgeStyle;rounded=0;orthogonalLoop=1;jettySize=auto;html=1;exitX=0.5;exitY=1;exitDx=0;exitDy=0;entryX=0.5;entryY=0;entryDx=0;entryDy=0;" edge="1" parent="1" source="P4rtW_fDKfjn2RvKO4Z2-6" target="P4rtW_fDKfjn2RvKO4Z2-69">
          <mxGeometry relative="1" as="geometry">
            <mxPoint x="515" y="370" as="sourcePoint" />
            <mxPoint x="435" y="560" as="targetPoint" />
          </mxGeometry>
        </mxCell>
        <mxCell id="P4rtW_fDKfjn2RvKO4Z2-69" value="have" style="rhombus;whiteSpace=wrap;html=1;" vertex="1" parent="1">
          <mxGeometry x="490" y="440" width="50" height="40" as="geometry" />
        </mxCell>
        <mxCell id="P4rtW_fDKfjn2RvKO4Z2-71" value="access" style="rhombus;whiteSpace=wrap;html=1;" vertex="1" parent="1">
          <mxGeometry x="305" y="220" width="50" height="40" as="geometry" />
        </mxCell>
        <mxCell id="P4rtW_fDKfjn2RvKO4Z2-72" style="edgeStyle=orthogonalEdgeStyle;rounded=0;orthogonalLoop=1;jettySize=auto;html=1;exitX=0.75;exitY=0;exitDx=0;exitDy=0;entryX=0.5;entryY=1;entryDx=0;entryDy=0;" edge="1" parent="1" source="P4rtW_fDKfjn2RvKO4Z2-1" target="P4rtW_fDKfjn2RvKO4Z2-71">
          <mxGeometry relative="1" as="geometry" />
        </mxCell>
        <mxCell id="P4rtW_fDKfjn2RvKO4Z2-73" style="edgeStyle=orthogonalEdgeStyle;rounded=0;orthogonalLoop=1;jettySize=auto;html=1;exitX=0.5;exitY=0;exitDx=0;exitDy=0;entryX=0.375;entryY=1.017;entryDx=0;entryDy=0;entryPerimeter=0;" edge="1" parent="1" source="P4rtW_fDKfjn2RvKO4Z2-71" target="P4rtW_fDKfjn2RvKO4Z2-4">
          <mxGeometry relative="1" as="geometry" />
        </mxCell>
      </root>
    </mxGraphModel>
  </diagram>
</mxfile>
